<?xml version="1.0" standalone="no"?>
<!DOCTYPE svg PUBLIC "-//W3C//DTD SVG 20010904//EN"
 "http://www.w3.org/TR/2001/REC-SVG-20010904/DTD/svg10.dtd">
<svg version="1.0" xmlns="http://www.w3.org/2000/svg"
 width="1092.000000pt" height="1092.000000pt" viewBox="0 0 1092.000000 1092.000000"
 preserveAspectRatio="xMidYMid meet">
<metadata>
Created by potrace 1.14, written by Peter Selinger 2001-2017
</metadata>
<g transform="translate(0.000000,1092.000000) scale(0.100000,-0.100000)"
fill="#000000" stroke="none">
<path d="M3675 8554 c-109 -9 -286 -36 -394 -60 -432 -96 -915 -363 -1249
-690 -64 -63 -119 -114 -122 -114 -3 0 -32 18 -65 40 l-59 39 -46 -26 c-59
-34 -189 -124 -270 -187 l-64 -51 39 -3 c83 -6 236 -77 251 -116 3 -8 -8 -41
-25 -75 -47 -92 -89 -203 -112 -294 -11 -45 -22 -87 -24 -93 -2 -8 -21 -8 -67
1 -162 31 -290 88 -373 166 l-52 49 -80 -108 c-121 -162 -294 -445 -280 -458
3 -3 56 -17 118 -30 316 -67 578 -162 666 -243 l30 -27 -15 -85 c-24 -131 -23
-790 1 -958 37 -257 82 -427 171 -634 134 -313 185 -562 205 -1002 18 -367 65
-508 289 -865 115 -184 157 -230 230 -249 21 -6 172 -17 337 -26 165 -8 326
-17 358 -19 l57 -4 0 73 c0 73 0 74 28 77 21 2 28 9 30 31 3 23 8 27 33 27 16
0 29 4 29 8 0 5 -33 41 -74 80 -100 97 -163 126 -331 151 -156 24 -240 61
-292 129 -65 85 -67 178 -7 304 42 87 75 131 252 343 163 194 200 235 210 235
12 0 135 -319 181 -470 23 -74 51 -160 63 -190 44 -115 142 -291 218 -391 118
-158 330 -356 460 -432 88 -51 142 -57 543 -57 l367 0 0 70 0 70 34 0 c34 0
35 1 38 42 2 35 7 43 26 48 l23 5 -30 41 c-69 97 -132 124 -403 174 -175 33
-226 46 -285 75 -117 58 -199 168 -224 299 -26 144 53 436 196 715 24 47 55
115 68 151 36 94 339 864 342 868 2 2 74 -15 161 -36 273 -69 483 -98 812
-112 119 -5 235 -15 257 -21 181 -51 297 -202 365 -474 17 -66 49 -246 71
-400 22 -154 49 -325 60 -380 56 -280 196 -559 416 -833 108 -135 169 -192
249 -234 121 -64 164 -69 509 -66 289 3 305 4 331 24 15 11 29 25 31 30 2 5
-22 24 -53 43 l-56 33 49 50 48 49 -35 30 c-78 65 -146 89 -296 105 -218 22
-227 25 -309 108 -255 259 -318 692 -149 1043 35 73 123 211 147 232 12 9 19
-8 42 -97 64 -251 175 -475 344 -697 88 -117 280 -311 401 -409 117 -93 352
-248 491 -323 116 -63 330 -163 349 -163 6 0 10 26 10 60 l0 60 71 0 71 0 -7
43 c-9 55 -45 133 -80 175 -15 18 -113 95 -218 170 -281 201 -370 300 -465
515 -207 471 -211 901 -11 1300 125 247 388 531 589 632 104 53 175 109 325
255 196 193 314 271 537 354 116 43 261 79 407 102 96 14 114 15 193 1 111
-19 180 -51 292 -136 50 -37 127 -89 171 -116 44 -26 82 -49 84 -51 1 -1 -4
-13 -13 -26 -9 -12 -16 -35 -16 -51 0 -34 49 -127 68 -127 19 0 52 61 52 95
-1 17 -6 39 -13 51 -7 12 -86 84 -177 161 -213 180 -300 274 -490 521 -175
229 -156 215 -345 248 -161 29 -327 2 -434 -70 -28 -19 -51 -33 -51 -30 0 2
16 26 35 53 19 26 35 51 35 54 0 12 -108 -27 -185 -66 -219 -114 -403 -308
-562 -594 -95 -173 -102 -170 -30 12 109 280 237 489 394 647 176 178 288 230
498 230 126 0 230 -18 314 -54 24 -10 45 -17 48 -15 7 8 -176 176 -254 231
-46 33 -84 68 -86 80 -3 11 -20 112 -38 224 -34 217 -42 238 -94 248 -47 9
-72 -20 -150 -165 -38 -72 -74 -131 -80 -130 -5 0 -91 90 -189 200 -112 125
-194 208 -217 220 -81 41 -197 16 -256 -56 -53 -64 -56 -99 -28 -307 14 -101
25 -186 25 -189 0 -4 -17 -10 -37 -14 -21 -4 -92 -24 -158 -45 -193 -60 -230
-65 -525 -65 -291 0 -354 7 -507 56 -121 39 -399 180 -658 334 -490 291 -581
345 -765 447 -681 381 -1237 586 -1774 653 -123 16 -401 26 -491 19z m6273
-2120 c52 -36 5 -122 -53 -96 -14 6 -28 23 -31 38 -6 22 -2 32 20 51 32 27 35
28 64 7z"/>
<path d="M426 5932 c-25 -43 -166 -712 -166 -788 0 -21 4 -24 41 -24 63 0 396
-38 579 -66 181 -28 336 -62 426 -93 32 -12 60 -18 63 -15 3 3 9 109 13 237 6
215 24 507 33 533 2 8 -57 13 -193 17 -353 11 -589 64 -735 167 -31 21 -58 36
-61 32z"/>
<path d="M9770 5843 c0 -15 47 -82 83 -121 18 -19 59 -53 92 -77 70 -50 422
-261 459 -274 27 -11 136 14 136 31 0 5 -115 64 -255 133 -260 126 -390 203
-470 276 -25 23 -45 37 -45 32z"/>
<path d="M185 4502 c-3 -16 -4 -200 -3 -409 l3 -381 110 -26 c300 -71 532
-105 776 -113 170 -6 177 -5 188 14 27 51 91 459 91 580 0 47 -1 48 -95 58
-108 12 -427 73 -565 109 -210 53 -380 118 -467 176 l-31 21 -7 -29z"/>
<path d="M80 3244 c-6 -16 -25 -65 -43 -109 -60 -154 -35 -281 75 -380 113
-101 322 -108 514 -16 50 24 84 46 84 55 0 21 -260 287 -339 346 -76 58 -189
116 -243 126 -35 6 -39 4 -48 -22z"/>
</g>
</svg>
