<svg xmlns="http://www.w3.org/2000/svg" viewBox="0 0 1091.64 620.7"><defs><style>.cls-1,.cls-12,.cls-5,.cls-7{fill:#665949;}.cls-13,.cls-2{fill:#f7e2cb;}.cls-18,.cls-3{fill:#776a58;}.cls-15,.cls-16,.cls-4,.cls-6,.cls-8{fill:#5e5144;}.cls-12,.cls-4{opacity:0.5;}.cls-15,.cls-17,.cls-5{opacity:0.1;}.cls-6{opacity:0.6;}.cls-7{opacity:0.2;}.cls-9{opacity:0.4;}.cls-10{fill:#23201c;}.cls-11{fill:#fffdfa;}.cls-13{opacity:0.03;}.cls-14{fill:#564b40;}.cls-16{opacity:0.15;}.cls-17{fill:#191714;}.cls-18{opacity:0.25;}</style></defs><g id="Layer_2" data-name="Layer 2"><path class="cls-1" d="M679.59,617.07C693.7,722.93,793,776.38,836.69,795c2.34,1,4.55,1.86,6.54,2.69,8,3.17,13.09,4.82,13.92,5.1l.13.06V785A34.07,34.07,0,0,0,843,757.3l-28.66-20.53a96.29,96.29,0,0,1-30.78-35.95c-11.85-24.66-17.5-47.11-18.6-67.22-5-86.85,71.56-131.42,71.56-131.42-24-29.54-64.88-35.81-99.11-19.56C699.77,500.46,670.08,545.64,679.59,617.07Z" transform="translate(43.46 -182.12)"/><path class="cls-1" d="M101.93,462.86v.06c-.42,35.06,3.1,78.87,18.73,113,14.74,32.3,21.28,67.77,21.28,103.31a138.25,138.25,0,0,0,5.17,37.19,135.76,135.76,0,0,0,15.15,34.3l17.22,27.76a27,27,0,0,0,21.77,12.81l68.6,3.45,6.88.34A10.92,10.92,0,0,0,285.48,777l-3-3.38L275.7,766A48,48,0,0,0,246,750.34l-14.4-1.86s-49.59-9.92-8.26-60.33,56.2-64.47,56.2-64.47L106.41,402.18A458.55,458.55,0,0,0,101.93,462.86Z" transform="translate(43.46 -182.12)"/><path class="cls-2" d="M195.46,235.57a403.06,403.06,0,0,0-33.82,43.66l-.34.55a400.58,400.58,0,0,0-20.94,35.54v.07q-8.27,16.33-14.81,32.65a400.11,400.11,0,0,0-18.94,63.43,505,505,0,0,0-8.19,52.9.1.1,0,0,0,0,.14c-3,27.82-3.79,55-4.21,80.86-.48,25-.62,48.9-2,71.21-1.38,23.22-4.07,44.64-9.71,64a139.53,139.53,0,0,1-13.57,32c-13.64,23-27.28,37.6-40.3,46.42C13,769.56-1.73,771.9-14.26,770.31c-1.86-.2-3.59-.55-5.31-.89-18.87-4.13-28.93-25-21.35-42.84,2.07-4.82,4.13-10.26,6.06-16.26A205.62,205.62,0,0,0-26,666.66a215.93,215.93,0,0,0,.55-32.93,390.93,390.93,0,0,1,.48-50C-23.56,563.14-21,543-18.4,525.6c5-32.1,10.54-55,10.54-55,2.14-9.23,4.41-18,6.75-26.52l.35-.89a358.84,358.84,0,0,1,24.31-62A302.74,302.74,0,0,1,61,323.73a274.2,274.2,0,0,1,35.26-35.68l.14-.14a270.19,270.19,0,0,1,38.64-27.27c30.58-17.91,54.89-23.9,59.64-24.87Z" transform="translate(43.46 -182.12)"/><path class="cls-3" d="M23.55,381.17c1.93.34,37.4,6.68,62.12,16.94,9.37,3.93,17.15,8.41,20.94,13.36A400.11,400.11,0,0,1,125.55,348a137.41,137.41,0,0,1-24.86-3.1c-14-3-30.51-9.09-39.67-21.21A302.74,302.74,0,0,0,23.55,381.17Z" transform="translate(43.46 -182.12)"/><path class="cls-3" d="M-18.4,525.6c19.22,1.58,65.5,6,93.74,13,8.2,2,14.88,4.27,18.87,6.75.42-25.9,1.24-53,4.21-80.86a.1.1,0,0,1,0-.14s-8.89.55-21.63.21C53.23,463.89,16.45,460-.76,443.16l-.35.89c-2.34,8.54-4.61,17.29-6.75,26.52C-7.86,470.57-13.37,493.5-18.4,525.6Z" transform="translate(43.46 -182.12)"/><path class="cls-3" d="M-19.57,769.42c1.72.34,3.45.69,5.31.89C-1.73,771.9,13,769.56,28.64,759c-2.89-3.65-7.09-8.75-12.19-14.26-13.7-14.94-33.74-33.13-51.31-34.37-1.93,6-4,11.44-6.06,16.26C-48.5,744.42-38.44,765.29-19.57,769.42Z" transform="translate(43.46 -182.12)"/><path class="cls-4" d="M101.93,462.86v.06c1.24,5.72,22.31,97.05,76,121,55.37,24.66,45.46,104.28,45.46,104.28,41.32-50.42,56.2-64.47,56.2-64.47L106.41,402.18A458.55,458.55,0,0,0,101.93,462.86Z" transform="translate(43.46 -182.12)"/><path class="cls-5" d="M-14.26,770.31C-1.73,771.9,13,769.56,28.64,759c13-8.82,26.66-23.42,40.3-46.42a139.53,139.53,0,0,0,13.57-32c5.64-19.35,8.33-40.77,9.71-64,1.37-22.31,1.51-46.21,2-71.21.42-25.9,1.24-53,4.21-80.86a.1.1,0,0,1,0-.14,505,505,0,0,1,8.19-52.9A400.11,400.11,0,0,1,125.55,348q6.51-16.32,14.81-32.65v-.07l21.35-36.09h-.07a403.06,403.06,0,0,1,33.82-43.66l-.76.2c-4.27,1.17-25.27,8.13-48.49,32.65a180.79,180.79,0,0,0-22.38,28.86,248.16,248.16,0,0,0-23.14,47.66,357.64,357.64,0,0,0-15,53.17,525.68,525.68,0,0,0-8.88,66.47,730.55,730.55,0,0,0-1.45,74c.14,5.92.42,12,.69,18.11a359,359,0,0,1-1.65,57.38c-2.83,25.27-8.54,47.38-16.39,66.8h-.07a194.39,194.39,0,0,1-41.47,63.78A202.05,202.05,0,0,1-14.26,770.31Z" transform="translate(43.46 -182.12)"/><path class="cls-6" d="M679.59,617.07C693.7,722.93,793,776.38,836.69,795l-38.11-32.84A113.59,113.59,0,0,1,761,655.9l4-22.3c-5-86.85,71.56-131.42,71.56-131.42l-99.11-19.56C699.77,500.46,670.08,545.64,679.59,617.07Z" transform="translate(43.46 -182.12)"/><path class="cls-3" d="M830.84,384.13l-39.48,77.92-10.62,21L768,508.11s-21.28,37.26-63.85,90.57h-.06q-10,12.6-21.63,26.24-4.26,5-7.74,10c-44.56,63.47-.11,124.12,15.8,128.24,6.75,1.72,15.7,2.62,23.9,3a43.14,43.14,0,0,1,29.27,13.57,45.53,45.53,0,0,1,5.72,7.65,15.73,15.73,0,0,1-2.62,8.68l-.21.27a23.51,23.51,0,0,1-1.72,2,15.41,15.41,0,0,1-11,4.54h-51a52.74,52.74,0,0,1-39.33-17.35,265,265,0,0,1-31.13-41.6c-8.33-14-15.63-29.83-19.63-46.63-7.16-30-8.33-64.54-15.91-91.12v-.07a95.24,95.24,0,0,0-7.09-18.25,37.63,37.63,0,0,0-2.27-3.93c-7.37-11.85-18.26-19.7-35.06-21.08h-.35a47.87,47.87,0,0,0-5.44-.27c-56.27,0-100-13.36-106.55-15.36a.25.25,0,0,0-.2-.07h-.07a.22.22,0,0,0-.14-.07c-.35-.14-.48-.21-.48-.21v.07l-.21.42L417,552.46,399.4,597.09l-3.51,9-14.67,37.47S361,677.88,358.14,710.05c-1.86,21.28,13.09,40.36,34.1,44.35l35.88,6.69a35.28,35.28,0,0,1,13.91,6,32.78,32.78,0,0,1,10.82,13.43h.07a37.37,37.37,0,0,1,3.17,14.32c0,.69,0,1.45-.07,2.21l-.42,5.78H370.27a43.1,43.1,0,0,1-24.66-7.64c-18.87-13.09-54.27-43.32-68.53-92.78-19.84-68.8-57.1-128.24-91.74-151.25-25.76-17.08-97-113.3-74.53-209.72v-.07C121.14,297,151.38,252.58,215.09,215.8a250.14,250.14,0,0,1,29.27-14.53c52-21.91,103.87-23.15,153.59-13.09,122.74,24.73,231.91,118.33,295.14,139.75a86.36,86.36,0,0,0,16.66,4c21.65,2.62,39.48,2.75,54,1.49,4.2-.37,8.11-.85,11.77-1.42,4.58-.72,8.74-1.58,12.52-2.53a105.74,105.74,0,0,0,15.44-5.09c7-1.92,11.63-2.65,11.63-2.65l-.43-3.21a31.86,31.86,0,0,0,6-4.77Z" transform="translate(43.46 -182.12)"/><path class="cls-2" d="M1042.21,481.45l-31.06,16.39-.27.14a4.47,4.47,0,0,1-.83.35,11.19,11.19,0,0,1-1.24.55l-.84.38a27.71,27.71,0,0,1-4.42,1.57c-.45.12-.9.22-1.35.32a32.39,32.39,0,0,1-3.2.65h0a31.94,31.94,0,0,1-5,.38H836.55l52.55-51,45-43.74,61.09,18,7.72,2.28,37.67,32.09.62.55,3,2.48A11.26,11.26,0,0,1,1042.21,481.45Z" transform="translate(43.46 -182.12)"/><path class="cls-7" d="M765,447l21.58,3.75-19.08,28.74,7.22-21.54-30.21-1.41,15.81-38.39L740,414.78l9.47-34.91-24.11-10.71c9-15.12,37.55-35.12,38.44-35.75,4.2-.37,8.11-.85,11.77-1.42,4.58-.72,8.74-1.58,12.52-2.53l-26.61,25.9,6.1,16.2-9,30.62,14.76,5.32Z" transform="translate(43.46 -182.12)"/><path class="cls-8" d="M844.89,349.9l73.9-21.77c18.53,11.92,38.64,29.07,46.28,50l.07.07L990,410.77a199.8,199.8,0,0,0,29.29,30.92l21.37,18.2.62.55-1.41.35s-15.73-7.89-28.3-18.27A56.26,56.26,0,0,0,967.92,430c-29.24,4.05-70.29,15.21-96.72,45.54-43.81,50.14-86.72,27.82-88.85,26.65h-.07Z" transform="translate(43.46 -182.12)"/><path class="cls-8" d="M882.08,308.78l14.25-26.43a8.1,8.1,0,0,1,15.14,2.57l6.82,42.88-23.4,4.12Z" transform="translate(43.46 -182.12)"/><path class="cls-8" d="M823.19,334.2l-11.16,68-58,44.29,14.64-35.41H746.33l14.25-37.19-22.31-6.2c11.56-19.82,32.62-31.56,49.78-38.21a161.41,161.41,0,0,1,15.44-5.09c7-1.92,11.63-2.65,11.63-2.65Z" transform="translate(43.46 -182.12)"/><path class="cls-1" d="M965.14,378.21a.48.48,0,0,1-.2-.07l-.49-.21c-5.64-2.13-45.18-15.84-68.73,7.72L905,372s-44,6.2-76.86,68.81q-3.93,7.43-7.44,13.63a.54.54,0,0,0-.07.21c-26.24,46.56-37.47,47.52-38.29,47.52h-.07l5.58-21.07-7.12,1.9-11.48,3.06,17.36-35.34L749.43,452l4.57-5.5,41.3-49.67-26-.62s17.91-28.58,40.5-42.08a15.86,15.86,0,0,0,7.58-15.77l-2.22-16.61-.43-3.21v0l-4.1-30.77c-2.35-17.74,16-29,30.14-22.29a21.6,21.6,0,0,1,6.84,5.14l34.51,38.22a236.58,236.58,0,0,1,36.23,19c.14.14.34.21.48.34,12.47,8,25.55,18.33,35.19,30.65a69,69,0,0,1,11.09,19.36Z" transform="translate(43.46 -182.12)"/><path class="cls-2" d="M820.71,454.45q3.51-6.19,7.44-13.63C861,378.21,905,372,905,372l-9.29,13.64c25.41-25.42,69.42-7.44,69.42-7.44l-.07-.07c-1.35-1.6-22.48-25.63-49.93-28-10.36-.91-21.62,1.27-33.06,8.89C840.62,386.61,821.81,450.53,820.71,454.45Z" transform="translate(43.46 -182.12)"/><path class="cls-9" d="M955.89,397.61a17.5,17.5,0,0,1-1.55,15,11.94,11.94,0,0,1-10.91,5.3c-7.12-.4-17.14-3.85-13.44-20.91Z" transform="translate(43.46 -182.12)"/><circle class="cls-10" cx="986.51" cy="220.06" r="13.85"/><circle class="cls-11" cx="991.56" cy="216.96" r="5.66"/><path class="cls-1" d="M939.52,382.81s-21.9,8.83-21.9,23.91,32.23,15.5,32.23,15.5-44.42,12.19-44.42-14.05S929.19,381.63,939.52,382.81Z" transform="translate(43.46 -182.12)"/><path class="cls-2" d="M843.23,785v12.67c8,3.17,13.09,4.82,13.92,5.1l.13.06V785Z" transform="translate(43.46 -182.12)"/><path class="cls-2" d="M733.93,789.53l12.33,7.1.34-.35.21-.27a15.73,15.73,0,0,0,2.62-8.68,45.53,45.53,0,0,0-5.72-7.65Z" transform="translate(43.46 -182.12)"/><path class="cls-2" d="M269.85,779.68v15.09l6.88.34A10.91,10.91,0,0,0,285.48,777l-3-3.38h-7.3v6.06Z" transform="translate(43.46 -182.12)"/><path class="cls-2" d="M440.31,788.57v14.25H455.6L456,797c.07-.76.07-1.52.07-2.21a37.37,37.37,0,0,0-3.17-14.32h-5.17v8.06Z" transform="translate(43.46 -182.12)"/><path class="cls-12" d="M373.43,366.15c2.62,3.72,5.31,7.31,8.06,10.82l2,2.68,1.65,3,3.24,5.85,3.38,5.72,2.68,6.13c1.65,4.13,3.86,8,5.1,12.26s2.75,8.47,4.2,12.67c1.17,4.27,2.2,8.61,3.31,12.88s2,8.68,2.82,13.09,1.79,8.67,2.27,13.15c2.83,17.56,3.93,35.47,4.69,53.31.41,9,.41,18,.27,26.93,0,2.62,0,5.23-.14,7.85L419,547.3l.21-.49s.13.07.48.21c.14.07.27.07.41.14,1.1-9.78,1.66-19.63,1.93-29.48a292.62,292.62,0,0,0-3.17-54.34c-3-18-6.88-36-14.46-52.69-1.52-4.27-4.06-8.2-6.06-12.26l-3.17-6.06-3.93-5.65C386.31,379,379.84,372.42,373.43,366.15Z" transform="translate(43.46 -182.12)"/><path class="cls-12" d="M558.16,514.92c0,6.34-.07,12.61.48,18.88a214.31,214.31,0,0,0,6.13,37c1.45,5.72,3.1,11.44,5,17a95.24,95.24,0,0,1,7.09,18.25c-2.61-12.12-4.75-24.25-6.88-36.3s-3.66-24.31-4.48-36.44A173.88,173.88,0,0,1,565.8,497c1.52-11.92,4.34-23.9,11.09-34.44C568,471.4,563,483.72,560.5,496.12,559,502.32,558.78,508.66,558.16,514.92Z" transform="translate(43.46 -182.12)"/><path class="cls-2" d="M900.19,351.07l64.26,26.86.49.21h.13A69,69,0,0,0,954,358.78C930,344.73,900.19,351.07,900.19,351.07Z" transform="translate(43.46 -182.12)"/><path class="cls-7" d="M110.81,341.43c.9,4.13,34.79,165.78,98.84,192.85C244,548.77,269.53,601.36,286,647.7c9.75,27.46,46.35,31.9,62.53,7.65a365.74,365.74,0,0,1,23-31.11h0l.08-.07q4.2-5.05,8.49-9.63c14.12-21.48,16.26-58.21,16.53-73.13.39-79.69-23.15-175.26-23.15-175.26l15,18.46,18.39,36L417,483.79l1.86,61.37.42,1.65v.07l-.21.42L417,552.46,399.4,597.09l-18.18,46.43S361,677.88,358.14,710.05c-1.86,21.28,13.09,40.36,34.1,44.35l35.88,6.69a35.28,35.28,0,0,1,13.91,6,32.78,32.78,0,0,1,10.82,13.43h.07a37.37,37.37,0,0,1,3.17,14.32c0,.69,0,1.45-.07,2.21l-.42,5.78H370.27a43.1,43.1,0,0,1-24.66-7.64c-18.87-13.09-54.27-43.32-68.53-92.78-19.84-68.8-57.1-128.24-91.74-151.25C159.58,534.07,88.36,437.85,110.81,341.43Z" transform="translate(43.46 -182.12)"/><path class="cls-13" d="M198.28,313.6c-.06,61.78,80.31,83.62,115.23,32.65,15.5-22.52,40.36-40.57,80.24-44.77C515.32,288.81,508,474.91,693.09,327.93c-63.23-21.42-172.4-115-295.14-139.75-49.72-10.06-101.59-8.82-153.59,13.09-14.39,11.57-25.89,27-33.33,46.83C202.07,272,198.28,293.84,198.28,313.6Z" transform="translate(43.46 -182.12)"/><path class="cls-7" d="M419.86,547.09h.07a.25.25,0,0,1,.2.07c6.55,2,50.28,15.36,106.55,15.36a47.87,47.87,0,0,1,5.44.27l.14-1.79c.07.62.14,1.24.21,1.79,16.8,1.38,27.69,9.23,35.06,21.08v-15.5l-4.07-22.93-1.24-43.12,3.58-16.53s7.92-19.84,11-23.14a162,162,0,0,0-32,41.29,60.14,60.14,0,0,1-54.82,31.87c-18.24-.55-41.3-4.36-67.73-15.44Z" transform="translate(43.46 -182.12)"/><path class="cls-14" d="M918.72,379.87A109.4,109.4,0,0,0,901,388.71c-5.54,3.4-10.7,7.57-14,12.74l-10.23,16,6.45-18,5.28-14.69,3.39,3.11a130.52,130.52,0,0,0-17.67,11.7A144.86,144.86,0,0,0,858.5,414a110.25,110.25,0,0,0-13.33,16.7c-4.11,5.9-7.19,12.4-10.27,19a86.19,86.19,0,0,1,7.81-20.47A100.34,100.34,0,0,1,855.16,411a115.74,115.74,0,0,1,15.93-15.37,112.16,112.16,0,0,1,18.65-12.16l5.92-3.09-2.52,6.2L887.25,401l-3.78-2c4.39-5.76,10.24-9.61,16.24-12.69a73.89,73.89,0,0,1,9.34-3.83A69.56,69.56,0,0,1,918.72,379.87Z" transform="translate(43.46 -182.12)"/><path class="cls-10" d="M1038.57,462.23a9.61,9.61,0,0,0-1.07,11.25l4.71,8a11.26,11.26,0,0,0,2-18.53l-3.58-3Z" transform="translate(43.46 -182.12)"/><path class="cls-15" d="M881.11,484.55c-2.13-17.7,34-40.22,34-40.22l-26,6.89-52.55,51h59.58C888.9,498.19,882.08,492.33,881.11,484.55Z" transform="translate(43.46 -182.12)"/><path class="cls-16" d="M932.5,447s-8.06,5-4.76,10.95A22.18,22.18,0,0,1,932.5,447Z" transform="translate(43.46 -182.12)"/><path class="cls-17" d="M840.73,265.42c-1,0-24.21,1.21-24.21,18.3s-1.74,33.94-1.83,34.76l-4.1-30.77C808.24,270,826.57,258.69,840.73,265.42Z" transform="translate(43.46 -182.12)"/><path class="cls-7" d="M786.62,450.73l-75.7,114-40.4,56.78c-21.74,21.27-42.51,59-22.34,119.5,0,0-17,7.92-35.75,2.83a265,265,0,0,0,31.13,41.6,52.74,52.74,0,0,0,39.33,17.35h51a15.41,15.41,0,0,0,11-4.54,23.51,23.51,0,0,0,1.72-2l.21-.27a15.73,15.73,0,0,0,2.62-8.68,45.53,45.53,0,0,0-5.72-7.65,43.14,43.14,0,0,0-29.27-13.57c-8.2-.34-17.15-1.24-23.9-3-15.91-4.12-60.34-64.78-15.8-128.24h0c.39-.56.8-1.12,1.21-1.69s.69-1,1-1.43l.86-1.14,1.52-1.95.74-.93c.64-.79,1.3-1.59,2-2.38l.39-.47c2.77-3.26,5.45-6.46,8.09-9.64,1.73-2.08,3.44-4.14,5.11-6.19,2.89-3.52,5.72-7,8.43-10.41h.06C746.74,545.37,768,508.11,768,508.11L780.74,483l10.62-21Z" transform="translate(43.46 -182.12)"/><path class="cls-3" d="M161.71,279.23l-21.35,36.09v.07a69.71,69.71,0,0,0-16.53-18.11c-7.23-5.51-16.6-9.92-27.55-9.23l.14-.14a270.19,270.19,0,0,1,38.64-27.27l11.15,7.78,15.43,10.81Z" transform="translate(43.46 -182.12)"/><path class="cls-3" d="M92.22,616.58c-1.38,23.22-4.07,44.64-9.71,64a158.93,158.93,0,0,1-24.52.34h-.07C24.58,679.26-12,670.31-26,666.66a215.93,215.93,0,0,0,.55-32.93,390.93,390.93,0,0,1,.48-50c18.53,15.77,68.88,25.62,99.32,30.38C81.75,615.21,87.88,616,92.22,616.58Z" transform="translate(43.46 -182.12)"/><path class="cls-10" d="M971.34,478.15a196,196,0,0,1-20.18-11c-6.4-4.13-12.53-8.47-18-14.73l-.62.27c3.3,7.51,9,13.57,15.29,18.67a107.86,107.86,0,0,0,19.72,12.53c13.65,8.54,29.69,18.24,31.49,17.87a32.39,32.39,0,0,0,3.2-.65c.45-.1.9-.2,1.35-.32a27.71,27.71,0,0,0,4.42-1.57l.84-.38a11.19,11.19,0,0,0,1.24-.55,4.47,4.47,0,0,0,.83-.35l.27-.14C997.72,490.34,984.22,484.69,971.34,478.15Z" transform="translate(43.46 -182.12)"/><path class="cls-18" d="M857.51,296.78l-6.83-8-3.42-4a15.2,15.2,0,0,0-4-3.65,12.89,12.89,0,0,0-10.58-1.27,13.08,13.08,0,0,0-4.71,2.75,13.25,13.25,0,0,0-3.14,4.45,13.08,13.08,0,0,0-1,5.34c0,.45.07.91.1,1.36l.17,1.3.34,2.6,1.35,10.41,1.44,10.4.6-.08s3.22-15.3,4.59-22.66h0a16.57,16.57,0,0,1,2.54-5.6c2.11-2.39,4.64-4,7.31-2.79l.94.92c1.24,1.24,2.51,2.45,3.8,3.65a117.07,117.07,0,0,0,16.77,13.24l.46-.39Z" transform="translate(43.46 -182.12)"/></g></svg>